# xmcd
#
# Track frame offsets: 
#        150
#        21333
#        42854
#        59104
#        75768
#        96776
#        119872
#        132854
#        153554
#        172923
#        195594
#        214453
#        230456
#        251985
#        271282
#        285476
#        304978
#        328772
#
# Disc length: 4670 seconds
#
# Revision: 0
# Processed by: cddbd v1.5.2PL0 Copyright (c) Steve Scherf et al.
# Submitted via: ExactAudioCopyFreeDBPlugin 1.0
#
DISCID=0c123c12
DTITLE=Samy Deluxe - SaMTV Unplugged - Baust Of
DYEAR=2018
DGENRE=No, thanks.
TTITLE0=Flagge hissen|Anker lichten
TTITLE1=Wer ich bin
TTITLE2=Samy Deluxe feat. Curse - Mein Flow is
TTITLE3=Samy Deluxe feat. Max Herre - Zurück zu wir
TTITLE4=Ego
TTITLE5=Musik um durch den Tag zu komm
TTITLE6=Exodus
TTITLE7=Superheld
TTITLE8=Von dir Mama
TTITLE9=Eines Tages
TTITLE10=Poesie Album
TTITLE11=Haus am Mehr
TTITLE12=Samy Deluxe feat. Megaloh and Killa Kela - Hände hoch 2018
TTITLE13=Weck mich auf
TTITLE14=Samy Deluxe feat. Eizi Eiz - Grüne Brille
TTITLE15=Bisschen mein Ding
TTITLE16=Samy Deluxe feat. Nena and Larissa - Fantasie Pt. 1
TTITLE17=Samy Deluxe feat. ASD - Sneak preview 
EXTD=
EXTT0=
EXTT1=
EXTT2=
EXTT3=
EXTT4=
EXTT5=
EXTT6=
EXTT7=
EXTT8=
EXTT9=
EXTT10=
EXTT11=
EXTT12=
EXTT13=
EXTT14=
EXTT15=
EXTT16=
EXTT17=
PLAYORDER=
